<mxfile host="app.diagrams.net" modified="2022-03-20T15:31:34.570Z" agent="5.0 (Macintosh; Intel Mac OS X 10_15_6) AppleWebKit/605.1.15 (KHTML, like Gecko) Version/15.3 Safari/605.1.15" etag="9DZLl14TBCLdytXtZ_02" version="17.1.3" type="github">
  <diagram id="nVTtW_2ZX9SCM_PD-DEV" name="Page-1">
    <mxGraphModel dx="718" dy="566" grid="1" gridSize="10" guides="1" tooltips="1" connect="1" arrows="1" fold="1" page="1" pageScale="1" pageWidth="827" pageHeight="1169" math="0" shadow="0">
      <root>
        <mxCell id="0" />
        <mxCell id="1" parent="0" />
        <mxCell id="xWjFjWmLgqk_2633hflu-1" value="3" style="ellipse;whiteSpace=wrap;html=1;aspect=fixed;" vertex="1" parent="1">
          <mxGeometry x="320" y="80" width="40" height="40" as="geometry" />
        </mxCell>
        <mxCell id="xWjFjWmLgqk_2633hflu-2" value="11" style="ellipse;whiteSpace=wrap;html=1;aspect=fixed;" vertex="1" parent="1">
          <mxGeometry x="370" y="80" width="40" height="40" as="geometry" />
        </mxCell>
        <mxCell id="xWjFjWmLgqk_2633hflu-3" value="7" style="ellipse;whiteSpace=wrap;html=1;aspect=fixed;" vertex="1" parent="1">
          <mxGeometry x="270" y="80" width="40" height="40" as="geometry" />
        </mxCell>
        <mxCell id="xWjFjWmLgqk_2633hflu-4" value="35" style="ellipse;whiteSpace=wrap;html=1;aspect=fixed;" vertex="1" parent="1">
          <mxGeometry x="470" y="80" width="40" height="40" as="geometry" />
        </mxCell>
        <mxCell id="xWjFjWmLgqk_2633hflu-5" value="19" style="ellipse;whiteSpace=wrap;html=1;aspect=fixed;" vertex="1" parent="1">
          <mxGeometry x="420" y="80" width="40" height="40" as="geometry" />
        </mxCell>
        <mxCell id="xWjFjWmLgqk_2633hflu-6" value="26" style="ellipse;whiteSpace=wrap;html=1;aspect=fixed;" vertex="1" parent="1">
          <mxGeometry x="170" y="80" width="40" height="40" as="geometry" />
        </mxCell>
        <mxCell id="xWjFjWmLgqk_2633hflu-7" value="10" style="ellipse;whiteSpace=wrap;html=1;aspect=fixed;" vertex="1" parent="1">
          <mxGeometry x="120" y="80" width="40" height="40" as="geometry" />
        </mxCell>
        <mxCell id="xWjFjWmLgqk_2633hflu-8" value="100" style="ellipse;whiteSpace=wrap;html=1;aspect=fixed;" vertex="1" parent="1">
          <mxGeometry x="220" y="80" width="40" height="40" as="geometry" />
        </mxCell>
        <mxCell id="xWjFjWmLgqk_2633hflu-9" value="Min Heap" style="text;html=1;strokeColor=none;fillColor=none;align=center;verticalAlign=middle;whiteSpace=wrap;rounded=0;fontStyle=1" vertex="1" parent="1">
          <mxGeometry x="40" y="160" width="60" height="30" as="geometry" />
        </mxCell>
        <mxCell id="xWjFjWmLgqk_2633hflu-10" value="Max Heap" style="text;html=1;strokeColor=none;fillColor=none;align=center;verticalAlign=middle;whiteSpace=wrap;rounded=0;fontStyle=1" vertex="1" parent="1">
          <mxGeometry x="400" y="160" width="60" height="30" as="geometry" />
        </mxCell>
        <mxCell id="xWjFjWmLgqk_2633hflu-11" value="3" style="ellipse;whiteSpace=wrap;html=1;aspect=fixed;" vertex="1" parent="1">
          <mxGeometry x="200" y="160" width="40" height="40" as="geometry" />
        </mxCell>
        <mxCell id="xWjFjWmLgqk_2633hflu-25" style="edgeStyle=none;rounded=0;orthogonalLoop=1;jettySize=auto;html=1;endArrow=none;endFill=0;" edge="1" parent="1" source="xWjFjWmLgqk_2633hflu-12" target="xWjFjWmLgqk_2633hflu-18">
          <mxGeometry relative="1" as="geometry" />
        </mxCell>
        <mxCell id="xWjFjWmLgqk_2633hflu-26" style="edgeStyle=none;rounded=0;orthogonalLoop=1;jettySize=auto;html=1;endArrow=none;endFill=0;" edge="1" parent="1" source="xWjFjWmLgqk_2633hflu-12" target="xWjFjWmLgqk_2633hflu-15">
          <mxGeometry relative="1" as="geometry" />
        </mxCell>
        <mxCell id="xWjFjWmLgqk_2633hflu-28" style="edgeStyle=none;rounded=0;orthogonalLoop=1;jettySize=auto;html=1;endArrow=none;endFill=0;" edge="1" parent="1" source="xWjFjWmLgqk_2633hflu-12" target="xWjFjWmLgqk_2633hflu-11">
          <mxGeometry relative="1" as="geometry" />
        </mxCell>
        <mxCell id="xWjFjWmLgqk_2633hflu-12" value="11" style="ellipse;whiteSpace=wrap;html=1;aspect=fixed;" vertex="1" parent="1">
          <mxGeometry x="260" y="210" width="40" height="40" as="geometry" />
        </mxCell>
        <mxCell id="xWjFjWmLgqk_2633hflu-24" style="edgeStyle=none;rounded=0;orthogonalLoop=1;jettySize=auto;html=1;endArrow=none;endFill=0;" edge="1" parent="1" source="xWjFjWmLgqk_2633hflu-13" target="xWjFjWmLgqk_2633hflu-17">
          <mxGeometry relative="1" as="geometry" />
        </mxCell>
        <mxCell id="xWjFjWmLgqk_2633hflu-27" style="edgeStyle=none;rounded=0;orthogonalLoop=1;jettySize=auto;html=1;endArrow=none;endFill=0;" edge="1" parent="1" source="xWjFjWmLgqk_2633hflu-13" target="xWjFjWmLgqk_2633hflu-11">
          <mxGeometry relative="1" as="geometry" />
        </mxCell>
        <mxCell id="xWjFjWmLgqk_2633hflu-13" value="7" style="ellipse;whiteSpace=wrap;html=1;aspect=fixed;" vertex="1" parent="1">
          <mxGeometry x="120" y="210" width="40" height="40" as="geometry" />
        </mxCell>
        <mxCell id="xWjFjWmLgqk_2633hflu-21" style="rounded=0;orthogonalLoop=1;jettySize=auto;html=1;endArrow=none;endFill=0;" edge="1" parent="1" source="xWjFjWmLgqk_2633hflu-14" target="xWjFjWmLgqk_2633hflu-16">
          <mxGeometry relative="1" as="geometry" />
        </mxCell>
        <mxCell id="xWjFjWmLgqk_2633hflu-14" value="35" style="ellipse;whiteSpace=wrap;html=1;aspect=fixed;" vertex="1" parent="1">
          <mxGeometry x="40" y="320" width="40" height="40" as="geometry" />
        </mxCell>
        <mxCell id="xWjFjWmLgqk_2633hflu-15" value="19" style="ellipse;whiteSpace=wrap;html=1;aspect=fixed;" vertex="1" parent="1">
          <mxGeometry x="290" y="260" width="40" height="40" as="geometry" />
        </mxCell>
        <mxCell id="xWjFjWmLgqk_2633hflu-22" style="edgeStyle=none;rounded=0;orthogonalLoop=1;jettySize=auto;html=1;endArrow=none;endFill=0;" edge="1" parent="1" source="xWjFjWmLgqk_2633hflu-16" target="xWjFjWmLgqk_2633hflu-20">
          <mxGeometry relative="1" as="geometry" />
        </mxCell>
        <mxCell id="xWjFjWmLgqk_2633hflu-23" style="edgeStyle=none;rounded=0;orthogonalLoop=1;jettySize=auto;html=1;endArrow=none;endFill=0;" edge="1" parent="1" source="xWjFjWmLgqk_2633hflu-16" target="xWjFjWmLgqk_2633hflu-13">
          <mxGeometry relative="1" as="geometry">
            <mxPoint x="120.21077508311578" y="262.80290512317356" as="sourcePoint" />
          </mxGeometry>
        </mxCell>
        <mxCell id="xWjFjWmLgqk_2633hflu-16" value="26" style="ellipse;whiteSpace=wrap;html=1;aspect=fixed;" vertex="1" parent="1">
          <mxGeometry x="70" y="260" width="40" height="40" as="geometry" />
        </mxCell>
        <mxCell id="xWjFjWmLgqk_2633hflu-17" value="10" style="ellipse;whiteSpace=wrap;html=1;aspect=fixed;" vertex="1" parent="1">
          <mxGeometry x="170" y="260" width="40" height="40" as="geometry" />
        </mxCell>
        <mxCell id="xWjFjWmLgqk_2633hflu-18" value="100" style="ellipse;whiteSpace=wrap;html=1;aspect=fixed;" vertex="1" parent="1">
          <mxGeometry x="230" y="260" width="40" height="40" as="geometry" />
        </mxCell>
        <mxCell id="xWjFjWmLgqk_2633hflu-19" value="49" style="ellipse;whiteSpace=wrap;html=1;aspect=fixed;" vertex="1" parent="1">
          <mxGeometry x="520" y="80" width="40" height="40" as="geometry" />
        </mxCell>
        <mxCell id="xWjFjWmLgqk_2633hflu-20" value="49" style="ellipse;whiteSpace=wrap;html=1;aspect=fixed;" vertex="1" parent="1">
          <mxGeometry x="100" y="320" width="40" height="40" as="geometry" />
        </mxCell>
        <mxCell id="xWjFjWmLgqk_2633hflu-43" style="edgeStyle=none;rounded=0;orthogonalLoop=1;jettySize=auto;html=1;endArrow=none;endFill=0;" edge="1" parent="1" source="xWjFjWmLgqk_2633hflu-29" target="xWjFjWmLgqk_2633hflu-37">
          <mxGeometry relative="1" as="geometry" />
        </mxCell>
        <mxCell id="xWjFjWmLgqk_2633hflu-29" value="3" style="ellipse;whiteSpace=wrap;html=1;aspect=fixed;" vertex="1" parent="1">
          <mxGeometry x="530" y="260" width="40" height="40" as="geometry" />
        </mxCell>
        <mxCell id="xWjFjWmLgqk_2633hflu-30" value="11" style="ellipse;whiteSpace=wrap;html=1;aspect=fixed;" vertex="1" parent="1">
          <mxGeometry x="590" y="260" width="40" height="40" as="geometry" />
        </mxCell>
        <mxCell id="xWjFjWmLgqk_2633hflu-45" style="edgeStyle=none;rounded=0;orthogonalLoop=1;jettySize=auto;html=1;endArrow=none;endFill=0;" edge="1" parent="1" source="xWjFjWmLgqk_2633hflu-31" target="xWjFjWmLgqk_2633hflu-32">
          <mxGeometry relative="1" as="geometry" />
        </mxCell>
        <mxCell id="xWjFjWmLgqk_2633hflu-31" value="7" style="ellipse;whiteSpace=wrap;html=1;aspect=fixed;" vertex="1" parent="1">
          <mxGeometry x="400" y="320" width="40" height="40" as="geometry" />
        </mxCell>
        <mxCell id="xWjFjWmLgqk_2633hflu-38" style="edgeStyle=none;rounded=0;orthogonalLoop=1;jettySize=auto;html=1;endArrow=none;endFill=0;" edge="1" parent="1" source="xWjFjWmLgqk_2633hflu-32" target="xWjFjWmLgqk_2633hflu-37">
          <mxGeometry relative="1" as="geometry" />
        </mxCell>
        <mxCell id="xWjFjWmLgqk_2633hflu-32" value="35" style="ellipse;whiteSpace=wrap;html=1;aspect=fixed;" vertex="1" parent="1">
          <mxGeometry x="430" y="260" width="40" height="40" as="geometry" />
        </mxCell>
        <mxCell id="xWjFjWmLgqk_2633hflu-33" value="19" style="ellipse;whiteSpace=wrap;html=1;aspect=fixed;" vertex="1" parent="1">
          <mxGeometry x="650" y="260" width="40" height="40" as="geometry" />
        </mxCell>
        <mxCell id="xWjFjWmLgqk_2633hflu-41" style="edgeStyle=none;rounded=0;orthogonalLoop=1;jettySize=auto;html=1;endArrow=none;endFill=0;" edge="1" parent="1" source="xWjFjWmLgqk_2633hflu-34" target="xWjFjWmLgqk_2633hflu-33">
          <mxGeometry relative="1" as="geometry" />
        </mxCell>
        <mxCell id="xWjFjWmLgqk_2633hflu-42" style="edgeStyle=none;rounded=0;orthogonalLoop=1;jettySize=auto;html=1;endArrow=none;endFill=0;" edge="1" parent="1" source="xWjFjWmLgqk_2633hflu-34" target="xWjFjWmLgqk_2633hflu-30">
          <mxGeometry relative="1" as="geometry" />
        </mxCell>
        <mxCell id="xWjFjWmLgqk_2633hflu-34" value="26" style="ellipse;whiteSpace=wrap;html=1;aspect=fixed;" vertex="1" parent="1">
          <mxGeometry x="620" y="210" width="40" height="40" as="geometry" />
        </mxCell>
        <mxCell id="xWjFjWmLgqk_2633hflu-44" style="edgeStyle=none;rounded=0;orthogonalLoop=1;jettySize=auto;html=1;endArrow=none;endFill=0;" edge="1" parent="1" source="xWjFjWmLgqk_2633hflu-35" target="xWjFjWmLgqk_2633hflu-32">
          <mxGeometry relative="1" as="geometry" />
        </mxCell>
        <mxCell id="xWjFjWmLgqk_2633hflu-35" value="10" style="ellipse;whiteSpace=wrap;html=1;aspect=fixed;" vertex="1" parent="1">
          <mxGeometry x="460" y="320" width="40" height="40" as="geometry" />
        </mxCell>
        <mxCell id="xWjFjWmLgqk_2633hflu-40" style="edgeStyle=none;rounded=0;orthogonalLoop=1;jettySize=auto;html=1;endArrow=none;endFill=0;" edge="1" parent="1" source="xWjFjWmLgqk_2633hflu-36" target="xWjFjWmLgqk_2633hflu-34">
          <mxGeometry relative="1" as="geometry" />
        </mxCell>
        <mxCell id="xWjFjWmLgqk_2633hflu-36" value="100" style="ellipse;whiteSpace=wrap;html=1;aspect=fixed;" vertex="1" parent="1">
          <mxGeometry x="560" y="160" width="40" height="40" as="geometry" />
        </mxCell>
        <mxCell id="xWjFjWmLgqk_2633hflu-39" style="edgeStyle=none;rounded=0;orthogonalLoop=1;jettySize=auto;html=1;endArrow=none;endFill=0;" edge="1" parent="1" source="xWjFjWmLgqk_2633hflu-37" target="xWjFjWmLgqk_2633hflu-36">
          <mxGeometry relative="1" as="geometry" />
        </mxCell>
        <mxCell id="xWjFjWmLgqk_2633hflu-37" value="49" style="ellipse;whiteSpace=wrap;html=1;aspect=fixed;" vertex="1" parent="1">
          <mxGeometry x="480" y="210" width="40" height="40" as="geometry" />
        </mxCell>
        <mxCell id="xWjFjWmLgqk_2633hflu-46" value="insert 순서" style="text;html=1;strokeColor=none;fillColor=none;align=center;verticalAlign=middle;whiteSpace=wrap;rounded=0;" vertex="1" parent="1">
          <mxGeometry x="40" y="80" width="60" height="30" as="geometry" />
        </mxCell>
      </root>
    </mxGraphModel>
  </diagram>
</mxfile>
